#!OML:ASF H:\Male1\Project 1\Capture day 1\Session 1\Male1.ASF
:FULLY-SPECIFIED
:DEGREES
329
root 12.136 14.9464 1.49496 183.668 10.0984 -181.156
lowerback 25.0649 -1.83303 -0.357063
upperback 11.9911 0.271005 -3.50584
thorax -0.646808 1.40167 -3.66968
lowerneck -5.92839 5.69873 7.04202
upperneck -10.937 7.5148 -9.62185
head -1.83336 4.06799 -4.40396
rclavicle 2.34566e-014 -2.78299e-015
rhumerus 2.74468 -7.66533 -50.5889
rradius 116.6
rwrist -16.5261
rhand -37.6107 -3.15396
rfingers 7.12502
rthumb -10.6638 -32.8634
lclavicle 2.34566e-014 -2.78299e-015
lhumerus -2.55809 13.4928 37.9853
lradius 109.455
lwrist -10.4812
lhand -36.2148 16.33
lfingers 7.12502
lthumb -9.31711 46.1041
rfemur -31.2287 -5.38647 15.867
rtibia 45.1935
rfoot -18.5114 -21.3775
rtoes -27.4818
lfemur -30.6342 -14.3217 -10.0757
ltibia 55.6018
lfoot -20.45 16.4029
ltoes -6.4957
330
root 12.2943 14.9916 1.4946 183.865 9.97128 -181.158
lowerback 24.8147 -1.8237 -0.287955
upperback 11.8628 0.23758 -3.41571
thorax -0.67507 1.35781 -3.59915
lowerneck -6.08284 5.48001 6.87656
upperneck -10.5905 7.22796 -9.2997
head -1.7338 3.90581 -4.24666
rclavicle 5.56597e-015 1.78906e-014
rhumerus 2.49394 -7.68331 -50.3595
rradius 116.693
rwrist -16.5344
rhand -37.5916 -3.0944
rfingers 7.12502
rthumb -10.6454 -32.8047
lclavicle 5.56597e-015 1.78906e-014
lhumerus -2.66537 13.1716 37.7425
lradius 109.678
lwrist -10.4132
lhand -36.1433 16.5757
lfingers 7.12502
lthumb -9.2481 46.3529
rfemur -30.8332 -5.28097 16.5211
rtibia 44.4656
rfoot -18.8621 -21.6361
rtoes -27.287
lfemur -31.0065 -13.5347 -11.8674
ltibia 55.4029
lfoot -21.2494 15.3466
ltoes -8.63994
331
root 12.449 15.0278 1.49323 184.049 9.81041 -181.126
lowerback 24.5884 -1.82551 -0.210487
upperback 11.7439 0.196882 -3.31979
thorax -0.704198 1.31282 -3.5261
lowerneck -6.2269 5.28119 6.72737
upperneck -10.2491 6.96521 -9.01526
head -1.63279 3.75674 -4.10715
rclavicle 3.29983e-014 -1.55052e-014
rhumerus 2.2335 -7.72836 -50.1389
rradius 116.787
rwrist -16.549
rhand -37.6135 -3.09378
rfingers 7.12502
rthumb -10.6665 -32.803
lclavicle 3.29983e-014 -1.55052e-014
lhumerus -2.70454 12.8669 37.4511
lradius 109.883
lwrist -10.3442
lhand -36.0528 16.7765
lfingers 7.12502
lthumb -9.16075 46.5575
rfemur -30.4987 -5.15435 17.1929
rtibia 43.8869
rfoot -19.2518 -21.9158
rtoes -27.0654
lfemur -31.3562 -12.7561 -13.672
ltibia 55.0006
lfoot -21.7948 13.7745
ltoes -11.0978
332
root 12.6004 15.0545 1.49025 184.215 9.62746 -181.054
lowerback 24.3808 -1.83257 -0.106603
upperback 11.643 0.163078 -3.21888
thorax -0.721454 1.2756 -3.46484
lowerneck -6.36159 5.10069 6.56908
upperneck -9.9315 6.72774 -8.75299
head -1.53804 3.6229 -3.97551
rclavicle -3.18055e-015 3.85642e-014
rhumerus 1.95345 -7.81141 -49.9265
rradius 116.871
rwrist -16.5687
rhand -37.6647 -3.16065
rfingers 7.12502
rthumb -10.7159 -32.8674
lclavicle -3.18055e-015 3.85642e-014
lhumerus -2.65719 12.5729 37.1502
lradius 110.073
lwrist -10.2648
lhand -35.964 16.8802
lfingers 7.12502
lthumb -9.07508 46.665
rfemur -30.2163 -5.01201 17.8886
rtibia 43.4608
rfoot -19.7188 -22.1746
rtoes -26.7412
lfemur -31.6521 -12.0439 -15.4288
ltibia 54.3937
lfoot -22.1821 11.7445
ltoes -13.6171
333
root 12.7489 15.0721 1.48524 184.372 9.43683 -180.939
lowerback 24.1724 -1.83231 0.0166387
upperback 11.5603 0.149521 -3.10703
thorax -0.716843 1.25159 -3.40754
lowerneck -6.4913 4.93468 6.3871
upperneck -9.64848 6.51241 -8.50672
head -1.45344 3.50355 -3.84685
rclavicle -1.63003e-014 5.96354e-014
rhumerus 1.64693 -7.93539 -49.72
rradius 116.933
rwrist -16.586
rhand -37.7154 -3.23544
rfingers 7.12502
rthumb -10.7648 -32.9396
lclavicle -1.63003e-014 5.96354e-014
lhumerus -2.5236 12.2852 36.8708
lradius 110.261
lwrist -10.1719
lhand -35.9248 16.9215
lfingers 7.12502
lthumb -9.03722 46.7079
rfemur -29.996 -4.86157 18.6149
rtibia 43.1794
rfoot -20.2783 -22.3856
rtoes -26.3072
lfemur -31.8916 -11.4477 -17.074
ltibia 53.6133
lfoot -22.5132 9.43053
ltoes -15.7868
334
root 12.8946 15.082 1.47819 184.521 9.2546 -180.79
lowerback 23.9606 -1.81442 0.139984
upperback 11.4972 0.165984 -2.99042
thorax -0.686396 1.24544 -3.35201
lowerneck -6.61237 4.77725 6.19408
upperneck -9.41171 6.31144 -8.27593
head -1.38376 3.39473 -3.72393
rclavicle 7.95139e-016 -4.77083e-015
rhumerus 1.30907 -8.10921 -49.5319
rradius 116.964
rwrist -16.6047
rhand -37.7395 -3.26165
rfingers 7.12502
rthumb -10.788 -32.9646
lclavicle 7.95139e-016 -4.77083e-015
lhumerus -2.3034 12.0008 36.6282
lradius 110.46
lwrist -10.0677
lhand -35.9437 16.9667
lfingers 7.12502
lthumb -9.05552 46.7523
rfemur -29.8319 -4.72469 19.3633
rtibia 43.0263
rfoot -20.9012 -22.5344
rtoes -25.8609
lfemur -32.0629 -10.9922 -18.5722
ltibia 52.7103
lfoot -22.8139 7.24552
ltoes -17.4931
335
root 13.0375 15.0849 1.46954 184.646 9.10094 -180.632
lowerback 23.7668 -1.77667 0.201703
upperback 11.4489 0.201646 -2.87278
thorax -0.646132 1.24915 -3.26483
lowerneck -6.71122 4.64748 6.02206
upperneck -9.22524 6.14763 -8.07516
head -1.3295 3.30679 -3.61744
rclavicle 1.59028e-014 1.15295e-014
rhumerus 0.97053 -8.28995 -49.3745
rradius 116.962
rwrist -16.6383
rhand -37.7276 -3.23267
rfingers 7.12502
rthumb -10.7766 -32.9362
lclavicle 1.59028e-014 1.15295e-014
lhumerus -2.056 11.7426 36.4193
lradius 110.685
lwrist -9.97045
lhand -36.0131 16.9962
lfingers 7.12502
lthumb -9.12242 46.7789
rfemur -29.7124 -4.64677 20.1155
rtibia 42.986
rfoot -21.506 -22.6032
rtoes -25.6075
lfemur -32.1474 -10.6904 -19.9096
ltibia 51.74
lfoot -23.1116 5.47209
ltoes -18.3402
336
root 13.1771 15.0818 1.45995 184.741 9.00403 -180.455
lowerback 23.6089 -1.71726 0.198633
upperback 11.4145 0.25859 -2.75933
thorax -0.605965 1.26387 -3.15069
lowerneck -6.78844 4.55184 5.89505
upperneck -9.09134 6.02785 -7.91125
head -1.29011 3.24243 -3.53375
rclavicle -3.22031e-014 -8.74653e-015
rhumerus 0.647905 -8.45366 -49.2454
rradius 116.935
rwrist -16.694
rhand -37.6901 -3.16032
rfingers 7.12502
rthumb -10.7403 -32.8658
lclavicle -3.22031e-014 -8.74653e-015
lhumerus -1.80334 11.5181 36.2382
lradius 110.943
lwrist -9.89153
lhand -36.1036 16.9564
lfingers 7.12502
lthumb -9.20981 46.7352
rfemur -29.6303 -4.668 20.8875
rtibia 43.049
rfoot -22.0053 -22.5665
rtoes -25.7155
lfemur -32.136 -10.5441 -21.0444
ltibia 50.756
lfoot -23.3459 4.43157
ltoes -19.5877
337
root 13.3128 15.0728 1.45024 184.794 8.99042 -180.251
lowerback 23.5086 -1.63538 0.121558
upperback 11.3935 0.336619 -2.6493
thorax -0.57714 1.28919 -3.0039
lowerneck -6.83964 4.4979 5.81374
upperneck -9.0207 5.96239 -7.7831
head -1.26937 3.20712 -3.47241
rclavicle -3.57812e-015 -3.37934e-014
rhumerus 0.369823 -8.56255 -49.1475
rradius 116.888
rwrist -16.7794
rhand -37.6546 -3.07737
rfingers 7.12502
rthumb -10.7061 -32.7846
lclavicle -3.57812e-015 -3.37934e-014
lhumerus -1.57885 11.3488 36.0788
lradius 111.236
lwrist -9.83252
lhand -36.149 16.8823
lfingers 7.12502
lthumb -9.25354 46.6592
rfemur -29.5803 -4.80463 21.6852
rtibia 43.2194
rfoot -22.3485 -22.3834
rtoes -26.1918
lfemur -32.025 -10.6064 -21.9086
ltibia 49.8034
lfoot -23.5279 3.90618
ltoes -20.5481
338
root 13.4444 15.0572 1.44119 184.813 9.08269 -180
lowerback 23.4699 -1.53066 -0.0195389
upperback 11.3808 0.436088 -2.54073
thorax -0.567799 1.32463 -2.82838
lowerneck -6.87073 4.49573 5.7702
upperneck -9.00386 5.96504 -7.67745
head -1.26299 3.20721 -3.42627
rclavicle -2.38542e-015 6.75868e-015
rhumerus 0.155042 -8.61139 -49.1192
rradius 116.815
rwrist -16.8687
rhand -37.6258 -3.00325
rfingers 7.12502
rthumb -10.6784 -32.7119
lclavicle -2.38542e-015 6.75868e-015
lhumerus -1.41184 11.2606 35.932
lradius 111.559
lwrist -9.79633
lhand -36.1294 16.848
lfingers 7.12502
lthumb -9.23471 46.6258
rfemur -29.5856 -5.05295 22.5239
rtibia 43.5251
rfoot -22.5026 -22.0143
rtoes -27.0305
lfemur -31.8404 -10.923 -22.4332
ltibia 48.9355
lfoot -23.5847 3.65655
ltoes -20.8784
